<mxfile host="app.diagrams.net" modified="2023-07-19T09:23:47.924Z" agent="Mozilla/5.0 (X11; Ubuntu; Linux x86_64; rv:109.0) Gecko/20100101 Firefox/115.0" etag="G6--aBffnpeCx_lwolnh" version="21.6.3" type="github">
  <diagram name="Страница 1" id="QG4lw_gwYli3VmN4gazu">
    <mxGraphModel dx="1912" dy="968" grid="0" gridSize="10" guides="1" tooltips="1" connect="1" arrows="1" fold="1" page="1" pageScale="1" pageWidth="1169" pageHeight="827" math="0" shadow="0">
      <root>
        <mxCell id="0" />
        <mxCell id="1" parent="0" />
        <mxCell id="WlWlzccpBVXDmkGFudgn-2" value="" style="rounded=0;whiteSpace=wrap;html=1;" parent="1" vertex="1">
          <mxGeometry x="80" y="142.5" width="620" height="340" as="geometry" />
        </mxCell>
        <mxCell id="WlWlzccpBVXDmkGFudgn-4" value="" style="rounded=0;whiteSpace=wrap;html=1;" parent="1" vertex="1">
          <mxGeometry x="841" y="142.5" width="284" height="343.5" as="geometry" />
        </mxCell>
        <mxCell id="WlWlzccpBVXDmkGFudgn-5" value="" style="rounded=0;whiteSpace=wrap;html=1;" parent="1" vertex="1">
          <mxGeometry x="265" y="620" width="245" height="146" as="geometry" />
        </mxCell>
        <mxCell id="WlWlzccpBVXDmkGFudgn-82" style="edgeStyle=none;rounded=0;orthogonalLoop=1;jettySize=auto;html=1;exitX=1;exitY=0.5;exitDx=0;exitDy=0;entryX=0;entryY=0.5;entryDx=0;entryDy=0;entryPerimeter=0;" parent="1" source="WlWlzccpBVXDmkGFudgn-7" target="WlWlzccpBVXDmkGFudgn-11" edge="1">
          <mxGeometry relative="1" as="geometry" />
        </mxCell>
        <mxCell id="WlWlzccpBVXDmkGFudgn-94" style="edgeStyle=none;rounded=0;orthogonalLoop=1;jettySize=auto;html=1;exitX=0.5;exitY=0;exitDx=0;exitDy=0;entryX=0.5;entryY=1;entryDx=0;entryDy=0;" parent="1" source="WlWlzccpBVXDmkGFudgn-7" target="WlWlzccpBVXDmkGFudgn-8" edge="1">
          <mxGeometry relative="1" as="geometry" />
        </mxCell>
        <mxCell id="WlWlzccpBVXDmkGFudgn-7" value="APP" style="html=1;whiteSpace=wrap;" parent="1" vertex="1">
          <mxGeometry x="350" y="389" width="120" height="50" as="geometry" />
        </mxCell>
        <mxCell id="WlWlzccpBVXDmkGFudgn-95" style="edgeStyle=none;rounded=0;orthogonalLoop=1;jettySize=auto;html=1;exitX=0.5;exitY=1;exitDx=0;exitDy=0;entryX=0.5;entryY=0;entryDx=0;entryDy=0;" parent="1" source="WlWlzccpBVXDmkGFudgn-8" target="WlWlzccpBVXDmkGFudgn-7" edge="1">
          <mxGeometry relative="1" as="geometry" />
        </mxCell>
        <mxCell id="gPxx74mPuiwvPUPwIb2N-2" style="edgeStyle=none;rounded=0;orthogonalLoop=1;jettySize=auto;html=1;exitX=1;exitY=0.5;exitDx=0;exitDy=0;entryX=0;entryY=0.5;entryDx=0;entryDy=0;" edge="1" parent="1" source="WlWlzccpBVXDmkGFudgn-8" target="WlWlzccpBVXDmkGFudgn-36">
          <mxGeometry relative="1" as="geometry" />
        </mxCell>
        <mxCell id="WlWlzccpBVXDmkGFudgn-8" value="&lt;div&gt;File Storage&lt;/div&gt;" style="html=1;whiteSpace=wrap;" parent="1" vertex="1">
          <mxGeometry x="355" y="236" width="110" height="50" as="geometry" />
        </mxCell>
        <mxCell id="WlWlzccpBVXDmkGFudgn-83" style="edgeStyle=none;rounded=0;orthogonalLoop=1;jettySize=auto;html=1;exitX=0;exitY=0.5;exitDx=0;exitDy=0;exitPerimeter=0;entryX=1;entryY=0.5;entryDx=0;entryDy=0;" parent="1" source="WlWlzccpBVXDmkGFudgn-11" target="WlWlzccpBVXDmkGFudgn-7" edge="1">
          <mxGeometry relative="1" as="geometry" />
        </mxCell>
        <mxCell id="WlWlzccpBVXDmkGFudgn-93" style="edgeStyle=none;rounded=0;orthogonalLoop=1;jettySize=auto;html=1;exitX=0.5;exitY=0;exitDx=0;exitDy=0;exitPerimeter=0;entryX=0.5;entryY=1;entryDx=0;entryDy=0;" parent="1" source="WlWlzccpBVXDmkGFudgn-11" target="WlWlzccpBVXDmkGFudgn-36" edge="1">
          <mxGeometry relative="1" as="geometry" />
        </mxCell>
        <mxCell id="WlWlzccpBVXDmkGFudgn-11" value="" style="strokeWidth=2;html=1;shape=mxgraph.flowchart.start_1;whiteSpace=wrap;" parent="1" vertex="1">
          <mxGeometry x="525" y="384" width="140" height="60" as="geometry" />
        </mxCell>
        <mxCell id="WlWlzccpBVXDmkGFudgn-18" value="" style="endArrow=none;dashed=1;html=1;dashPattern=1 3;strokeWidth=2;rounded=0;" parent="1" edge="1">
          <mxGeometry width="50" height="50" relative="1" as="geometry">
            <mxPoint x="290" y="85" as="sourcePoint" />
            <mxPoint x="290" y="555" as="targetPoint" />
          </mxGeometry>
        </mxCell>
        <mxCell id="WlWlzccpBVXDmkGFudgn-34" value="Encoder | Decoder" style="text;html=1;strokeColor=none;fillColor=none;align=center;verticalAlign=middle;whiteSpace=wrap;rounded=0;" parent="1" vertex="1">
          <mxGeometry x="539.5" y="401" width="111" height="30" as="geometry" />
        </mxCell>
        <mxCell id="WlWlzccpBVXDmkGFudgn-35" value="" style="group" parent="1" vertex="1" connectable="0">
          <mxGeometry x="530" y="230" width="130" height="60" as="geometry" />
        </mxCell>
        <mxCell id="WlWlzccpBVXDmkGFudgn-36" value="" style="ellipse;whiteSpace=wrap;html=1;" parent="WlWlzccpBVXDmkGFudgn-35" vertex="1">
          <mxGeometry width="130" height="60" as="geometry" />
        </mxCell>
        <mxCell id="WlWlzccpBVXDmkGFudgn-37" value="File manager" style="text;html=1;strokeColor=none;fillColor=none;align=center;verticalAlign=middle;whiteSpace=wrap;rounded=0;" parent="WlWlzccpBVXDmkGFudgn-35" vertex="1">
          <mxGeometry x="10.84" y="18.75" width="108.33" height="22.5" as="geometry" />
        </mxCell>
        <mxCell id="WlWlzccpBVXDmkGFudgn-38" value="Server / Storage" style="text;html=1;strokeColor=none;fillColor=none;align=center;verticalAlign=middle;whiteSpace=wrap;rounded=0;" parent="1" vertex="1">
          <mxGeometry x="913" y="160" width="130" height="30" as="geometry" />
        </mxCell>
        <mxCell id="WlWlzccpBVXDmkGFudgn-41" value="CLIENT" style="text;html=1;strokeColor=none;fillColor=none;align=center;verticalAlign=middle;whiteSpace=wrap;rounded=0;" parent="1" vertex="1">
          <mxGeometry x="467" y="160" width="60" height="30" as="geometry" />
        </mxCell>
        <mxCell id="WlWlzccpBVXDmkGFudgn-49" value="UI" style="text;html=1;strokeColor=none;fillColor=none;align=center;verticalAlign=middle;whiteSpace=wrap;rounded=0;" parent="1" vertex="1">
          <mxGeometry x="160" y="160" width="60" height="30" as="geometry" />
        </mxCell>
        <mxCell id="gPxx74mPuiwvPUPwIb2N-16" style="edgeStyle=orthogonalEdgeStyle;rounded=0;orthogonalLoop=1;jettySize=auto;html=1;exitX=1;exitY=0.5;exitDx=0;exitDy=0;entryX=0;entryY=0.5;entryDx=0;entryDy=0;" edge="1" parent="1" source="WlWlzccpBVXDmkGFudgn-50" target="WlWlzccpBVXDmkGFudgn-7">
          <mxGeometry relative="1" as="geometry">
            <Array as="points">
              <mxPoint x="327" y="313" />
              <mxPoint x="327" y="414" />
            </Array>
          </mxGeometry>
        </mxCell>
        <mxCell id="WlWlzccpBVXDmkGFudgn-50" value="" style="rounded=0;whiteSpace=wrap;html=1;" parent="1" vertex="1">
          <mxGeometry x="135" y="282.5" width="132" height="60" as="geometry" />
        </mxCell>
        <mxCell id="WlWlzccpBVXDmkGFudgn-52" value="&lt;div&gt;GUI&lt;/div&gt;" style="text;html=1;strokeColor=none;fillColor=none;align=center;verticalAlign=middle;whiteSpace=wrap;rounded=0;" parent="1" vertex="1">
          <mxGeometry x="171" y="299.25" width="60" height="30" as="geometry" />
        </mxCell>
        <mxCell id="WlWlzccpBVXDmkGFudgn-76" style="edgeStyle=none;rounded=0;orthogonalLoop=1;jettySize=auto;html=1;exitX=1;exitY=0.5;exitDx=0;exitDy=0;" parent="1" source="WlWlzccpBVXDmkGFudgn-53" target="WlWlzccpBVXDmkGFudgn-7" edge="1">
          <mxGeometry relative="1" as="geometry" />
        </mxCell>
        <mxCell id="WlWlzccpBVXDmkGFudgn-102" style="edgeStyle=orthogonalEdgeStyle;rounded=0;orthogonalLoop=1;jettySize=auto;html=1;exitX=0.5;exitY=0;exitDx=0;exitDy=0;entryX=0.5;entryY=1;entryDx=0;entryDy=0;" parent="1" source="WlWlzccpBVXDmkGFudgn-59" target="WlWlzccpBVXDmkGFudgn-4" edge="1">
          <mxGeometry relative="1" as="geometry" />
        </mxCell>
        <mxCell id="WlWlzccpBVXDmkGFudgn-103" style="edgeStyle=none;rounded=0;orthogonalLoop=1;jettySize=auto;html=1;exitX=0;exitY=0.5;exitDx=0;exitDy=0;entryX=1;entryY=0.5;entryDx=0;entryDy=0;" parent="1" source="WlWlzccpBVXDmkGFudgn-59" target="WlWlzccpBVXDmkGFudgn-5" edge="1">
          <mxGeometry relative="1" as="geometry">
            <mxPoint x="470" y="680" as="targetPoint" />
          </mxGeometry>
        </mxCell>
        <mxCell id="WlWlzccpBVXDmkGFudgn-59" value="" style="rounded=0;whiteSpace=wrap;html=1;" parent="1" vertex="1">
          <mxGeometry x="765" y="663" width="120" height="60" as="geometry" />
        </mxCell>
        <mxCell id="WlWlzccpBVXDmkGFudgn-60" value="Postgres" style="text;html=1;strokeColor=none;fillColor=none;align=center;verticalAlign=middle;whiteSpace=wrap;rounded=0;" parent="1" vertex="1">
          <mxGeometry x="795" y="678" width="60" height="30" as="geometry" />
        </mxCell>
        <mxCell id="WlWlzccpBVXDmkGFudgn-71" style="edgeStyle=orthogonalEdgeStyle;rounded=0;orthogonalLoop=1;jettySize=auto;html=1;" parent="1" source="WlWlzccpBVXDmkGFudgn-61" edge="1">
          <mxGeometry relative="1" as="geometry">
            <mxPoint x="190" y="280" as="targetPoint" />
            <Array as="points">
              <mxPoint x="191" y="230" />
            </Array>
          </mxGeometry>
        </mxCell>
        <mxCell id="WlWlzccpBVXDmkGFudgn-61" value="User" style="shape=umlActor;verticalLabelPosition=bottom;verticalAlign=top;html=1;outlineConnect=0;" parent="1" vertex="1">
          <mxGeometry x="20" y="200" width="30" height="60" as="geometry" />
        </mxCell>
        <mxCell id="WlWlzccpBVXDmkGFudgn-74" style="edgeStyle=none;rounded=0;orthogonalLoop=1;jettySize=auto;html=1;exitX=0.5;exitY=0.5;exitDx=0;exitDy=0;exitPerimeter=0;entryX=0.071;entryY=0.32;entryDx=0;entryDy=0;entryPerimeter=0;" parent="1" source="WlWlzccpBVXDmkGFudgn-62" target="WlWlzccpBVXDmkGFudgn-53" edge="1">
          <mxGeometry relative="1" as="geometry" />
        </mxCell>
        <mxCell id="WlWlzccpBVXDmkGFudgn-62" value="Admin" style="shape=umlActor;verticalLabelPosition=bottom;verticalAlign=top;html=1;outlineConnect=0;" parent="1" vertex="1">
          <mxGeometry x="20" y="379" width="30" height="60" as="geometry" />
        </mxCell>
        <mxCell id="WlWlzccpBVXDmkGFudgn-75" style="edgeStyle=none;rounded=0;orthogonalLoop=1;jettySize=auto;html=1;exitX=0.75;exitY=0;exitDx=0;exitDy=0;" parent="1" source="WlWlzccpBVXDmkGFudgn-34" target="WlWlzccpBVXDmkGFudgn-34" edge="1">
          <mxGeometry relative="1" as="geometry" />
        </mxCell>
        <mxCell id="WlWlzccpBVXDmkGFudgn-92" style="edgeStyle=none;rounded=0;orthogonalLoop=1;jettySize=auto;html=1;exitX=0.5;exitY=1;exitDx=0;exitDy=0;entryX=0.5;entryY=0;entryDx=0;entryDy=0;entryPerimeter=0;" parent="1" source="WlWlzccpBVXDmkGFudgn-36" target="WlWlzccpBVXDmkGFudgn-11" edge="1">
          <mxGeometry relative="1" as="geometry" />
        </mxCell>
        <mxCell id="WlWlzccpBVXDmkGFudgn-80" style="edgeStyle=none;rounded=0;orthogonalLoop=1;jettySize=auto;html=1;entryX=0;entryY=0.5;entryDx=0;entryDy=0;exitX=1;exitY=0.5;exitDx=0;exitDy=0;" parent="1" source="WlWlzccpBVXDmkGFudgn-5" target="WlWlzccpBVXDmkGFudgn-59" edge="1">
          <mxGeometry relative="1" as="geometry">
            <mxPoint x="509" y="680" as="sourcePoint" />
          </mxGeometry>
        </mxCell>
        <mxCell id="WlWlzccpBVXDmkGFudgn-104" value="" style="endArrow=classic;startArrow=classic;html=1;rounded=0;entryX=0.5;entryY=1;entryDx=0;entryDy=0;" parent="1" source="WlWlzccpBVXDmkGFudgn-5" target="WlWlzccpBVXDmkGFudgn-2" edge="1">
          <mxGeometry width="50" height="50" relative="1" as="geometry">
            <mxPoint x="390" y="540" as="sourcePoint" />
            <mxPoint x="620" y="420" as="targetPoint" />
          </mxGeometry>
        </mxCell>
        <mxCell id="WlWlzccpBVXDmkGFudgn-115" value="REST" style="edgeLabel;html=1;align=center;verticalAlign=middle;resizable=0;points=[];" parent="WlWlzccpBVXDmkGFudgn-104" vertex="1" connectable="0">
          <mxGeometry x="-0.0243" y="3" relative="1" as="geometry">
            <mxPoint as="offset" />
          </mxGeometry>
        </mxCell>
        <mxCell id="WlWlzccpBVXDmkGFudgn-108" style="edgeStyle=orthogonalEdgeStyle;rounded=0;orthogonalLoop=1;jettySize=auto;html=1;entryX=0.5;entryY=0;entryDx=0;entryDy=0;" parent="1" source="WlWlzccpBVXDmkGFudgn-4" target="WlWlzccpBVXDmkGFudgn-59" edge="1">
          <mxGeometry relative="1" as="geometry" />
        </mxCell>
        <mxCell id="WlWlzccpBVXDmkGFudgn-109" value="" style="endArrow=classic;startArrow=classic;html=1;rounded=0;exitX=1;exitY=0.5;exitDx=0;exitDy=0;" parent="1" source="WlWlzccpBVXDmkGFudgn-2" target="WlWlzccpBVXDmkGFudgn-4" edge="1">
          <mxGeometry width="50" height="50" relative="1" as="geometry">
            <mxPoint x="570" y="480" as="sourcePoint" />
            <mxPoint x="620" y="430" as="targetPoint" />
          </mxGeometry>
        </mxCell>
        <mxCell id="WlWlzccpBVXDmkGFudgn-110" value="GRPC" style="edgeLabel;html=1;align=center;verticalAlign=middle;resizable=0;points=[];" parent="WlWlzccpBVXDmkGFudgn-109" vertex="1" connectable="0">
          <mxGeometry x="0.0257" y="-1" relative="1" as="geometry">
            <mxPoint as="offset" />
          </mxGeometry>
        </mxCell>
        <mxCell id="WlWlzccpBVXDmkGFudgn-117" value="&lt;div&gt;Server / Web&lt;/div&gt;" style="text;html=1;strokeColor=none;fillColor=none;align=center;verticalAlign=middle;whiteSpace=wrap;rounded=0;" parent="1" vertex="1">
          <mxGeometry x="348.5" y="633" width="78" height="30" as="geometry" />
        </mxCell>
        <mxCell id="gPxx74mPuiwvPUPwIb2N-1" value="" style="group" vertex="1" connectable="0" parent="1">
          <mxGeometry x="125" y="384" width="140" height="60" as="geometry" />
        </mxCell>
        <mxCell id="WlWlzccpBVXDmkGFudgn-51" value="" style="rounded=0;whiteSpace=wrap;html=1;" parent="gPxx74mPuiwvPUPwIb2N-1" vertex="1">
          <mxGeometry x="10" width="130" height="60" as="geometry" />
        </mxCell>
        <mxCell id="WlWlzccpBVXDmkGFudgn-53" value="&lt;div&gt;Web Interface&lt;/div&gt;" style="text;html=1;strokeColor=none;fillColor=none;align=center;verticalAlign=middle;whiteSpace=wrap;rounded=0;" parent="gPxx74mPuiwvPUPwIb2N-1" vertex="1">
          <mxGeometry y="15" width="140" height="30" as="geometry" />
        </mxCell>
        <mxCell id="gPxx74mPuiwvPUPwIb2N-5" style="edgeStyle=none;rounded=0;orthogonalLoop=1;jettySize=auto;html=1;exitX=0;exitY=0.5;exitDx=0;exitDy=0;" edge="1" parent="1" source="WlWlzccpBVXDmkGFudgn-36" target="WlWlzccpBVXDmkGFudgn-8">
          <mxGeometry relative="1" as="geometry" />
        </mxCell>
        <mxCell id="gPxx74mPuiwvPUPwIb2N-6" value="" style="group" vertex="1" connectable="0" parent="1">
          <mxGeometry x="322.5" y="678" width="130" height="60" as="geometry" />
        </mxCell>
        <mxCell id="WlWlzccpBVXDmkGFudgn-16" value="" style="rounded=0;whiteSpace=wrap;html=1;" parent="gPxx74mPuiwvPUPwIb2N-6" vertex="1">
          <mxGeometry width="130" height="60" as="geometry" />
        </mxCell>
        <mxCell id="WlWlzccpBVXDmkGFudgn-39" value="&lt;div&gt;Server&lt;/div&gt;" style="text;html=1;strokeColor=none;fillColor=none;align=center;verticalAlign=middle;whiteSpace=wrap;rounded=0;" parent="gPxx74mPuiwvPUPwIb2N-6" vertex="1">
          <mxGeometry x="35" y="15" width="60" height="30" as="geometry" />
        </mxCell>
        <mxCell id="gPxx74mPuiwvPUPwIb2N-9" value="" style="group" vertex="1" connectable="0" parent="1">
          <mxGeometry x="903" y="305" width="150" height="60" as="geometry" />
        </mxCell>
        <mxCell id="WlWlzccpBVXDmkGFudgn-13" value="" style="rounded=0;whiteSpace=wrap;html=1;" parent="gPxx74mPuiwvPUPwIb2N-9" vertex="1">
          <mxGeometry width="150" height="60" as="geometry" />
        </mxCell>
        <mxCell id="WlWlzccpBVXDmkGFudgn-56" value="File Storage" style="text;html=1;strokeColor=none;fillColor=none;align=center;verticalAlign=middle;whiteSpace=wrap;rounded=0;" parent="gPxx74mPuiwvPUPwIb2N-9" vertex="1">
          <mxGeometry x="34.16999999999996" y="15" width="75.83" height="30" as="geometry" />
        </mxCell>
        <mxCell id="gPxx74mPuiwvPUPwIb2N-12" style="edgeStyle=orthogonalEdgeStyle;rounded=0;orthogonalLoop=1;jettySize=auto;html=1;exitX=1;exitY=0.5;exitDx=0;exitDy=0;entryX=1;entryY=0.5;entryDx=0;entryDy=0;" edge="1" parent="1" source="gPxx74mPuiwvPUPwIb2N-11" target="WlWlzccpBVXDmkGFudgn-26">
          <mxGeometry relative="1" as="geometry">
            <Array as="points">
              <mxPoint x="1088" y="428" />
              <mxPoint x="1088" y="246" />
            </Array>
          </mxGeometry>
        </mxCell>
        <mxCell id="gPxx74mPuiwvPUPwIb2N-11" value="" style="rounded=0;whiteSpace=wrap;html=1;" vertex="1" parent="1">
          <mxGeometry x="902.5" y="401" width="151" height="54" as="geometry" />
        </mxCell>
        <mxCell id="WlWlzccpBVXDmkGFudgn-40" value="Server" style="text;html=1;strokeColor=none;fillColor=none;align=center;verticalAlign=middle;whiteSpace=wrap;rounded=0;" parent="1" vertex="1">
          <mxGeometry x="933.0393023255814" y="414" width="89.9186046511628" height="30" as="geometry" />
        </mxCell>
        <mxCell id="gPxx74mPuiwvPUPwIb2N-8" value="" style="group" vertex="1" connectable="0" parent="1">
          <mxGeometry x="912" y="216" width="130" height="60" as="geometry" />
        </mxCell>
        <mxCell id="WlWlzccpBVXDmkGFudgn-29" value="" style="group" parent="gPxx74mPuiwvPUPwIb2N-8" vertex="1" connectable="0">
          <mxGeometry width="130" height="60" as="geometry" />
        </mxCell>
        <mxCell id="WlWlzccpBVXDmkGFudgn-26" value="" style="ellipse;whiteSpace=wrap;html=1;" parent="WlWlzccpBVXDmkGFudgn-29" vertex="1">
          <mxGeometry width="130" height="60" as="geometry" />
        </mxCell>
        <mxCell id="WlWlzccpBVXDmkGFudgn-28" value="File manager" style="text;html=1;strokeColor=none;fillColor=none;align=center;verticalAlign=middle;whiteSpace=wrap;rounded=0;" parent="WlWlzccpBVXDmkGFudgn-29" vertex="1">
          <mxGeometry x="10.833333333333329" y="17.5" width="108.33333333333333" height="25" as="geometry" />
        </mxCell>
        <mxCell id="gPxx74mPuiwvPUPwIb2N-13" style="edgeStyle=orthogonalEdgeStyle;rounded=0;orthogonalLoop=1;jettySize=auto;html=1;exitX=1;exitY=0.5;exitDx=0;exitDy=0;entryX=1;entryY=0.5;entryDx=0;entryDy=0;" edge="1" parent="1" source="WlWlzccpBVXDmkGFudgn-26" target="gPxx74mPuiwvPUPwIb2N-11">
          <mxGeometry relative="1" as="geometry">
            <Array as="points">
              <mxPoint x="1089" y="246" />
              <mxPoint x="1089" y="428" />
            </Array>
          </mxGeometry>
        </mxCell>
        <mxCell id="gPxx74mPuiwvPUPwIb2N-15" style="edgeStyle=orthogonalEdgeStyle;rounded=0;orthogonalLoop=1;jettySize=auto;html=1;exitX=1;exitY=0.5;exitDx=0;exitDy=0;entryX=1;entryY=0.5;entryDx=0;entryDy=0;" edge="1" parent="1" source="WlWlzccpBVXDmkGFudgn-26" target="WlWlzccpBVXDmkGFudgn-13">
          <mxGeometry relative="1" as="geometry">
            <Array as="points">
              <mxPoint x="1089" y="246" />
              <mxPoint x="1089" y="335" />
            </Array>
          </mxGeometry>
        </mxCell>
      </root>
    </mxGraphModel>
  </diagram>
</mxfile>
